# xmcd
#
# Track frame offsets:
#	150
#	19455
#	35241
#	52159
#	71974
#	89839
#	108998
#	123399
#	139694
#	159840
#	172885
#
# Disc length: 2772 seconds
#
# Revision: 1
# Processed by: cddbd v1.5.1PL2 Copyright (c) Steve Scherf et al.
# Submitted via: audiograbber 1.83.01
#
DISCID=a10ad20b
DTITLE=MC MARKO - Momacki sindrom
DYEAR=2005
DGENRE=Disco
TTITLE0=Poema o zutoj kesi
TTITLE1=Tesko nama s nama
TTITLE2=Momacki sindrom
TTITLE3=Komsija ne kuni me
TTITLE4=Fell The Love
TTITLE5=DJ Pojmas
TTITLE6=Prosjaci
TTITLE7=Intezivno tragam
TTITLE8=Pa sto cemo sad
TTITLE9=Necu zvaku vrati mi kusur
TTITLE10=Fell The Love (clum mix)
EXTD=
EXTT0=
EXTT1=
EXTT2=
EXTT3=
EXTT4=
EXTT5=
EXTT6=
EXTT7=
EXTT8=
EXTT9=
EXTT10=
PLAYORDER=
